<svg enable-background="new 0 0 500 500" viewBox="0 0 500 500" xmlns="http://www.w3.org/2000/svg"><path d="m250.22 1.95-248.05 248.05 248.05 248.05 248.05-248.05zm0 70.77 35.38 35.38-35.38 35.38-35.38-35.38zm-70.77 283.07-70.77-70.77-35.38-35.38 35.38-35.38 70.77-70.77 35.38 35.38-70.77 70.77 70.77 70.77zm70.77-70.77-35.38-35.38 35.38-35.38 35.38 35.38zm0 141.54-35.38-35.38 35.38-35.38 35.38 35.38zm141.54-141.54-70.77 70.77-35.38-35.38 70.77-70.77-70.77-70.77 35.38-35.38 70.77 70.77 35.38 35.38z"/></svg>